# xmcd
#
# Track frame offsets:
#        150
#        11120
#        38742
#        60520
#        96030
#        112807
#        127477
#        146477
#        176785
#        192647
#        211412
#        230062
#        247852
#        265897
#        285067
#        306900
#
# Disc length: 4319 seconds
#
# Revision: 0
# Processed by: cddbd v1.5.1PL0 Copyright (c) Steve Scherf et al.
# Submitted via: ExactAudioCopy v0.95a4
#
DISCID=e710dd10
DTITLE=Various Artist - Hit Heroes 1970-1989 7
DYEAR=1900
DGENRE=Pop
TTITLE0=The New Seekers - I'd Like Teach The World To Sing
TTITLE1=10cc - I'm Not In Love
TTITLE2=Village People - Y.M.C.A
TTITLE3=Lipps, Inc. - Funkytown
TTITLE4=Kool and The Gang - Celebration
TTITLE5=Con Funk Shun - Too Tight
TTITLE6=Yarbrough and Peoples - Don't Stop The Music
TTITLE7=Junior - Mama Used To Say
TTITLE8=ABC - The Look Of Love
TTITLE9=Dexy's Midnight Runners - Come On Eileen
TTITLE10=Michael Sembello - Maniac
TTITLE11=Big Country - In A Big Country
TTITLE12=Kool and The Gang - Joanna
TTITLE13=Tears For Fears - Everybody Wants To Rule The World
TTITLE14=Tears For Fears - Shout
TTITLE15=Swing Out Sister - Breakeout
EXTD=
EXTT0=
EXTT1=
EXTT2=
EXTT3=
EXTT4=
EXTT5=
EXTT6=
EXTT7=
EXTT8=
EXTT9=
EXTT10=
EXTT11=
EXTT12=
EXTT13=
EXTT14=
EXTT15=
PLAYORDER=
